<mxfile host="app.diagrams.net" modified="2023-10-24T01:20:53.408Z" agent="Mozilla/5.0 (Windows NT 10.0; Win64; x64) AppleWebKit/537.36 (KHTML, like Gecko) Chrome/118.0.0.0 Safari/537.36" etag="yoqHGbGysL2zgpwlcSL5" version="22.0.6" type="device">
  <diagram id="C5RBs43oDa-KdzZeNtuy" name="Page-1">
    <mxGraphModel dx="880" dy="446" grid="1" gridSize="10" guides="1" tooltips="1" connect="1" arrows="1" fold="1" page="1" pageScale="1" pageWidth="827" pageHeight="1169" math="0" shadow="0">
      <root>
        <mxCell id="WIyWlLk6GJQsqaUBKTNV-0" />
        <mxCell id="WIyWlLk6GJQsqaUBKTNV-1" parent="WIyWlLk6GJQsqaUBKTNV-0" />
        <mxCell id="JFm_ST4TKk0397qkzb1m-3" value="Producto" style="rounded=0;whiteSpace=wrap;html=1;" vertex="1" parent="WIyWlLk6GJQsqaUBKTNV-1">
          <mxGeometry x="560" y="48" width="120" height="60" as="geometry" />
        </mxCell>
        <mxCell id="JFm_ST4TKk0397qkzb1m-18" style="edgeStyle=orthogonalEdgeStyle;rounded=0;orthogonalLoop=1;jettySize=auto;html=1;endArrow=none;endFill=0;entryX=0.5;entryY=0;entryDx=0;entryDy=0;" edge="1" parent="WIyWlLk6GJQsqaUBKTNV-1" source="JFm_ST4TKk0397qkzb1m-5" target="JFm_ST4TKk0397qkzb1m-38">
          <mxGeometry relative="1" as="geometry">
            <mxPoint x="190" y="70" as="targetPoint" />
            <Array as="points">
              <mxPoint x="120" y="78" />
            </Array>
          </mxGeometry>
        </mxCell>
        <mxCell id="JFm_ST4TKk0397qkzb1m-5" value="Usuario" style="rounded=0;whiteSpace=wrap;html=1;" vertex="1" parent="WIyWlLk6GJQsqaUBKTNV-1">
          <mxGeometry x="235" y="48" width="120" height="60" as="geometry" />
        </mxCell>
        <mxCell id="JFm_ST4TKk0397qkzb1m-64" style="edgeStyle=orthogonalEdgeStyle;rounded=0;orthogonalLoop=1;jettySize=auto;html=1;entryX=0.5;entryY=1;entryDx=0;entryDy=0;endArrow=none;endFill=0;" edge="1" parent="WIyWlLk6GJQsqaUBKTNV-1" source="JFm_ST4TKk0397qkzb1m-6" target="JFm_ST4TKk0397qkzb1m-53">
          <mxGeometry relative="1" as="geometry" />
        </mxCell>
        <mxCell id="JFm_ST4TKk0397qkzb1m-6" value="Ventas" style="whiteSpace=wrap;html=1;" vertex="1" parent="WIyWlLk6GJQsqaUBKTNV-1">
          <mxGeometry x="235" y="400" width="120" height="60" as="geometry" />
        </mxCell>
        <mxCell id="JFm_ST4TKk0397qkzb1m-16" style="edgeStyle=orthogonalEdgeStyle;rounded=0;orthogonalLoop=1;jettySize=auto;html=1;entryX=0;entryY=0.5;entryDx=0;entryDy=0;endArrow=none;endFill=0;exitX=1;exitY=0.5;exitDx=0;exitDy=0;" edge="1" parent="WIyWlLk6GJQsqaUBKTNV-1" source="JFm_ST4TKk0397qkzb1m-37" target="JFm_ST4TKk0397qkzb1m-6">
          <mxGeometry relative="1" as="geometry">
            <mxPoint x="155" y="430" as="sourcePoint" />
          </mxGeometry>
        </mxCell>
        <mxCell id="JFm_ST4TKk0397qkzb1m-10" value="" style="endArrow=none;startArrow=none;html=1;rounded=0;entryX=0.5;entryY=1;entryDx=0;entryDy=0;exitX=0.5;exitY=0;exitDx=0;exitDy=0;endFill=0;startFill=0;" edge="1" parent="WIyWlLk6GJQsqaUBKTNV-1" source="JFm_ST4TKk0397qkzb1m-6" target="JFm_ST4TKk0397qkzb1m-19">
          <mxGeometry width="50" height="50" relative="1" as="geometry">
            <mxPoint x="545" y="340" as="sourcePoint" />
            <mxPoint x="595" y="290" as="targetPoint" />
          </mxGeometry>
        </mxCell>
        <mxCell id="JFm_ST4TKk0397qkzb1m-20" style="edgeStyle=orthogonalEdgeStyle;rounded=0;orthogonalLoop=1;jettySize=auto;html=1;endArrow=none;endFill=0;exitX=0.5;exitY=0;exitDx=0;exitDy=0;entryX=0.5;entryY=1;entryDx=0;entryDy=0;" edge="1" parent="WIyWlLk6GJQsqaUBKTNV-1" source="JFm_ST4TKk0397qkzb1m-19" target="JFm_ST4TKk0397qkzb1m-5">
          <mxGeometry relative="1" as="geometry">
            <mxPoint x="290" y="140" as="targetPoint" />
            <Array as="points">
              <mxPoint x="295" y="130" />
              <mxPoint x="295" y="130" />
            </Array>
          </mxGeometry>
        </mxCell>
        <mxCell id="JFm_ST4TKk0397qkzb1m-19" value="compra" style="rhombus;whiteSpace=wrap;html=1;" vertex="1" parent="WIyWlLk6GJQsqaUBKTNV-1">
          <mxGeometry x="255" y="220" width="80" height="80" as="geometry" />
        </mxCell>
        <mxCell id="JFm_ST4TKk0397qkzb1m-24" style="edgeStyle=orthogonalEdgeStyle;rounded=0;orthogonalLoop=1;jettySize=auto;html=1;entryX=0;entryY=0.5;entryDx=0;entryDy=0;endArrow=none;endFill=0;" edge="1" parent="WIyWlLk6GJQsqaUBKTNV-1" source="JFm_ST4TKk0397qkzb1m-23" target="JFm_ST4TKk0397qkzb1m-3">
          <mxGeometry relative="1" as="geometry" />
        </mxCell>
        <mxCell id="JFm_ST4TKk0397qkzb1m-23" value="Carrito" style="rhombus;whiteSpace=wrap;html=1;" vertex="1" parent="WIyWlLk6GJQsqaUBKTNV-1">
          <mxGeometry x="414" y="38" width="80" height="80" as="geometry" />
        </mxCell>
        <mxCell id="JFm_ST4TKk0397qkzb1m-28" value="" style="edgeStyle=orthogonalEdgeStyle;rounded=0;orthogonalLoop=1;jettySize=auto;html=1;endArrow=none;endFill=0;entryX=0;entryY=0.5;entryDx=0;entryDy=0;" edge="1" parent="WIyWlLk6GJQsqaUBKTNV-1" source="JFm_ST4TKk0397qkzb1m-5" target="JFm_ST4TKk0397qkzb1m-23">
          <mxGeometry relative="1" as="geometry">
            <mxPoint x="700" y="110" as="sourcePoint" />
            <mxPoint x="770" y="110" as="targetPoint" />
          </mxGeometry>
        </mxCell>
        <mxCell id="JFm_ST4TKk0397qkzb1m-29" value="1" style="text;html=1;align=center;verticalAlign=middle;resizable=0;points=[];autosize=1;strokeColor=none;fillColor=none;fontStyle=1" vertex="1" parent="WIyWlLk6GJQsqaUBKTNV-1">
          <mxGeometry x="5" y="10" width="30" height="30" as="geometry" />
        </mxCell>
        <mxCell id="JFm_ST4TKk0397qkzb1m-30" value="N" style="text;html=1;align=center;verticalAlign=middle;resizable=0;points=[];autosize=1;strokeColor=none;fillColor=none;fontStyle=1" vertex="1" parent="WIyWlLk6GJQsqaUBKTNV-1">
          <mxGeometry x="5" y="48" width="30" height="30" as="geometry" />
        </mxCell>
        <mxCell id="JFm_ST4TKk0397qkzb1m-31" value="1" style="text;html=1;align=center;verticalAlign=middle;resizable=0;points=[];autosize=1;strokeColor=none;fillColor=none;fontSize=12;fontStyle=1" vertex="1" parent="WIyWlLk6GJQsqaUBKTNV-1">
          <mxGeometry x="265" y="108" width="30" height="30" as="geometry" />
        </mxCell>
        <mxCell id="JFm_ST4TKk0397qkzb1m-33" value="N" style="text;html=1;align=center;verticalAlign=middle;resizable=0;points=[];autosize=1;strokeColor=none;fillColor=none;fontStyle=1" vertex="1" parent="WIyWlLk6GJQsqaUBKTNV-1">
          <mxGeometry x="265" y="370" width="30" height="30" as="geometry" />
        </mxCell>
        <mxCell id="JFm_ST4TKk0397qkzb1m-34" value="N" style="text;html=1;align=center;verticalAlign=middle;resizable=0;points=[];autosize=1;strokeColor=none;fillColor=none;fontStyle=1" vertex="1" parent="WIyWlLk6GJQsqaUBKTNV-1">
          <mxGeometry x="205" y="400" width="30" height="30" as="geometry" />
        </mxCell>
        <mxCell id="JFm_ST4TKk0397qkzb1m-35" value="1" style="text;html=1;align=center;verticalAlign=middle;resizable=0;points=[];autosize=1;strokeColor=none;fillColor=none;fontStyle=1" vertex="1" parent="WIyWlLk6GJQsqaUBKTNV-1">
          <mxGeometry x="205" y="48" width="30" height="30" as="geometry" />
        </mxCell>
        <mxCell id="JFm_ST4TKk0397qkzb1m-36" value="HistorialDeCompra" style="rounded=0;whiteSpace=wrap;html=1;" vertex="1" parent="WIyWlLk6GJQsqaUBKTNV-1">
          <mxGeometry x="60" y="260" width="120" height="60" as="geometry" />
        </mxCell>
        <mxCell id="JFm_ST4TKk0397qkzb1m-39" style="edgeStyle=orthogonalEdgeStyle;rounded=0;orthogonalLoop=1;jettySize=auto;html=1;entryX=0.5;entryY=1;entryDx=0;entryDy=0;endArrow=none;endFill=0;" edge="1" parent="WIyWlLk6GJQsqaUBKTNV-1" source="JFm_ST4TKk0397qkzb1m-37" target="JFm_ST4TKk0397qkzb1m-36">
          <mxGeometry relative="1" as="geometry" />
        </mxCell>
        <mxCell id="JFm_ST4TKk0397qkzb1m-37" value="tiene" style="rhombus;whiteSpace=wrap;html=1;" vertex="1" parent="WIyWlLk6GJQsqaUBKTNV-1">
          <mxGeometry x="80" y="390" width="80" height="80" as="geometry" />
        </mxCell>
        <mxCell id="JFm_ST4TKk0397qkzb1m-40" style="edgeStyle=orthogonalEdgeStyle;rounded=0;orthogonalLoop=1;jettySize=auto;html=1;entryX=0.5;entryY=0;entryDx=0;entryDy=0;endArrow=none;endFill=0;" edge="1" parent="WIyWlLk6GJQsqaUBKTNV-1" source="JFm_ST4TKk0397qkzb1m-38" target="JFm_ST4TKk0397qkzb1m-36">
          <mxGeometry relative="1" as="geometry" />
        </mxCell>
        <mxCell id="JFm_ST4TKk0397qkzb1m-38" value="tiene" style="rhombus;whiteSpace=wrap;html=1;" vertex="1" parent="WIyWlLk6GJQsqaUBKTNV-1">
          <mxGeometry x="80" y="120" width="80" height="80" as="geometry" />
        </mxCell>
        <mxCell id="JFm_ST4TKk0397qkzb1m-41" value="1" style="text;html=1;align=center;verticalAlign=middle;resizable=0;points=[];autosize=1;strokeColor=none;fillColor=none;fontStyle=1" vertex="1" parent="WIyWlLk6GJQsqaUBKTNV-1">
          <mxGeometry x="115" y="320" width="30" height="30" as="geometry" />
        </mxCell>
        <mxCell id="JFm_ST4TKk0397qkzb1m-42" value="1" style="text;html=1;align=center;verticalAlign=middle;resizable=0;points=[];autosize=1;strokeColor=none;fillColor=none;fontStyle=1" vertex="1" parent="WIyWlLk6GJQsqaUBKTNV-1">
          <mxGeometry x="85" y="230" width="30" height="30" as="geometry" />
        </mxCell>
        <mxCell id="JFm_ST4TKk0397qkzb1m-49" value="N" style="text;html=1;align=center;verticalAlign=middle;resizable=0;points=[];autosize=1;strokeColor=none;fillColor=none;fontStyle=1" vertex="1" parent="WIyWlLk6GJQsqaUBKTNV-1">
          <mxGeometry x="355" y="48" width="30" height="30" as="geometry" />
        </mxCell>
        <mxCell id="JFm_ST4TKk0397qkzb1m-65" style="edgeStyle=orthogonalEdgeStyle;rounded=0;orthogonalLoop=1;jettySize=auto;html=1;entryX=0.5;entryY=1;entryDx=0;entryDy=0;endArrow=none;endFill=0;" edge="1" parent="WIyWlLk6GJQsqaUBKTNV-1" source="JFm_ST4TKk0397qkzb1m-53" target="JFm_ST4TKk0397qkzb1m-55">
          <mxGeometry relative="1" as="geometry" />
        </mxCell>
        <mxCell id="JFm_ST4TKk0397qkzb1m-53" value="Carrito-Venta" style="rhombus;whiteSpace=wrap;html=1;" vertex="1" parent="WIyWlLk6GJQsqaUBKTNV-1">
          <mxGeometry x="410" y="215" width="100" height="90" as="geometry" />
        </mxCell>
        <mxCell id="JFm_ST4TKk0397qkzb1m-55" value="" style="rounded=0;whiteSpace=wrap;html=1;dashed=1;fillColor=none;" vertex="1" parent="WIyWlLk6GJQsqaUBKTNV-1">
          <mxGeometry x="200" y="20" width="520" height="132" as="geometry" />
        </mxCell>
        <mxCell id="JFm_ST4TKk0397qkzb1m-57" value="N" style="text;html=1;align=center;verticalAlign=middle;resizable=0;points=[];autosize=1;strokeColor=none;fillColor=none;fontStyle=1" vertex="1" parent="WIyWlLk6GJQsqaUBKTNV-1">
          <mxGeometry x="530" y="48" width="30" height="30" as="geometry" />
        </mxCell>
        <mxCell id="JFm_ST4TKk0397qkzb1m-58" value="Categoria" style="rounded=0;whiteSpace=wrap;html=1;" vertex="1" parent="WIyWlLk6GJQsqaUBKTNV-1">
          <mxGeometry x="700" y="310" width="120" height="60" as="geometry" />
        </mxCell>
        <mxCell id="JFm_ST4TKk0397qkzb1m-60" style="edgeStyle=orthogonalEdgeStyle;rounded=0;orthogonalLoop=1;jettySize=auto;html=1;entryX=0.5;entryY=0;entryDx=0;entryDy=0;endArrow=none;endFill=0;" edge="1" parent="WIyWlLk6GJQsqaUBKTNV-1" source="JFm_ST4TKk0397qkzb1m-59" target="JFm_ST4TKk0397qkzb1m-58">
          <mxGeometry relative="1" as="geometry" />
        </mxCell>
        <mxCell id="JFm_ST4TKk0397qkzb1m-61" style="edgeStyle=orthogonalEdgeStyle;rounded=0;orthogonalLoop=1;jettySize=auto;html=1;entryX=1;entryY=0.5;entryDx=0;entryDy=0;endArrow=none;endFill=0;" edge="1" parent="WIyWlLk6GJQsqaUBKTNV-1" source="JFm_ST4TKk0397qkzb1m-59" target="JFm_ST4TKk0397qkzb1m-3">
          <mxGeometry relative="1" as="geometry">
            <Array as="points">
              <mxPoint x="760" y="78" />
            </Array>
          </mxGeometry>
        </mxCell>
        <mxCell id="JFm_ST4TKk0397qkzb1m-59" value="Producto-Categoria" style="rhombus;whiteSpace=wrap;html=1;" vertex="1" parent="WIyWlLk6GJQsqaUBKTNV-1">
          <mxGeometry x="710" y="160" width="100" height="100" as="geometry" />
        </mxCell>
        <mxCell id="JFm_ST4TKk0397qkzb1m-62" value="N" style="text;html=1;align=center;verticalAlign=middle;resizable=0;points=[];autosize=1;strokeColor=none;fillColor=none;fontStyle=1" vertex="1" parent="WIyWlLk6GJQsqaUBKTNV-1">
          <mxGeometry x="760" y="280" width="30" height="30" as="geometry" />
        </mxCell>
        <mxCell id="JFm_ST4TKk0397qkzb1m-63" value="N" style="text;html=1;align=center;verticalAlign=middle;resizable=0;points=[];autosize=1;strokeColor=none;fillColor=none;fontStyle=1" vertex="1" parent="WIyWlLk6GJQsqaUBKTNV-1">
          <mxGeometry x="680" y="50" width="30" height="30" as="geometry" />
        </mxCell>
        <mxCell id="JFm_ST4TKk0397qkzb1m-66" value="N" style="text;html=1;align=center;verticalAlign=middle;resizable=0;points=[];autosize=1;strokeColor=none;fillColor=none;fontStyle=1" vertex="1" parent="WIyWlLk6GJQsqaUBKTNV-1">
          <mxGeometry x="430" y="152" width="30" height="30" as="geometry" />
        </mxCell>
        <mxCell id="JFm_ST4TKk0397qkzb1m-67" value="1" style="text;html=1;align=center;verticalAlign=middle;resizable=0;points=[];autosize=1;strokeColor=none;fillColor=none;fontStyle=1" vertex="1" parent="WIyWlLk6GJQsqaUBKTNV-1">
          <mxGeometry x="355" y="400" width="30" height="30" as="geometry" />
        </mxCell>
      </root>
    </mxGraphModel>
  </diagram>
</mxfile>
